<?xml version="1.0" encoding="UTF-8" standalone="no"?><svg xmlns="http://www.w3.org/2000/svg" xmlns:xlink="http://www.w3.org/1999/xlink" contentStyleType="text/css" height="1245px" preserveAspectRatio="none" style="width:3751px;height:1245px;background:#FFFFFF;" version="1.1" viewBox="0 0 3751 1245" width="3751px" zoomAndPan="magnify"><defs/><g><ellipse cx="1164.5" cy="48.6982" fill="#222222" rx="10" ry="10" style="stroke:#222222;stroke-width:1.0;"/><rect fill="#F1F1F1" height="33.9688" rx="12.5" ry="12.5" style="stroke:#181818;stroke-width:0.5;" width="174" x="1077.5" y="78.6982"/><text fill="#000000" font-family="sans-serif" font-size="12" lengthAdjust="spacing" textLength="154" x="1087.5" y="99.8369">Установка расширения</text><polygon fill="#F1F1F1" points="1070,132.667,1259,132.667,1271,144.667,1259,156.667,1070,156.667,1058,144.667,1070,132.667" style="stroke:#181818;stroke-width:0.5;"/><text fill="#000000" font-family="sans-serif" font-size="11" lengthAdjust="spacing" textLength="189" x="1070" y="148.4751">пользователь зарегестрирован</text><text fill="#000000" font-family="sans-serif" font-size="11" lengthAdjust="spacing" textLength="15" x="1043" y="142.0728">да</text><text fill="#000000" font-family="sans-serif" font-size="11" lengthAdjust="spacing" textLength="21" x="1271" y="142.0728">нет</text><rect fill="#F1F1F1" height="33.9688" rx="12.5" ry="12.5" style="stroke:#181818;stroke-width:0.5;" width="121" x="972.5" y="225.0693"/><text fill="#000000" font-family="sans-serif" font-size="12" lengthAdjust="spacing" textLength="101" x="982.5" y="246.208">Ввести данные</text><polygon fill="#F1F1F1" points="990,279.0381,1076,279.0381,1088,291.0381,1076,303.0381,990,303.0381,978,291.0381,990,279.0381" style="stroke:#181818;stroke-width:0.5;"/><text fill="#000000" font-family="sans-serif" font-size="11" lengthAdjust="spacing" textLength="21" x="1037" y="313.2485">нет</text><text fill="#000000" font-family="sans-serif" font-size="11" lengthAdjust="spacing" textLength="86" x="990" y="294.8462">данные верны</text><text fill="#000000" font-family="sans-serif" font-size="11" lengthAdjust="spacing" textLength="15" x="963" y="288.4438">да</text><rect fill="#F1F1F1" height="33.9688" rx="12.5" ry="12.5" style="stroke:#181818;stroke-width:0.5;" width="130" x="968" y="373.4404"/><text fill="#000000" font-family="sans-serif" font-size="12" lengthAdjust="spacing" textLength="106" x="982" y="394.5791">повторить вход</text><polygon fill="#F1F1F1" points="948,176.667,1118,176.667,1130,188.667,1118,200.667,948,200.667,936,188.667,948,176.667" style="stroke:#181818;stroke-width:0.5;"/><text fill="#000000" font-family="sans-serif" font-size="11" lengthAdjust="spacing" textLength="21" x="1037" y="210.8774">нет</text><text fill="#000000" font-family="sans-serif" font-size="11" lengthAdjust="spacing" textLength="170" x="948" y="192.4751">пользователь авторризован</text><text fill="#000000" font-family="sans-serif" font-size="11" lengthAdjust="spacing" textLength="15" x="1130" y="186.0728">да</text><polygon fill="#F1F1F1" points="1033,427.4092,1045,439.4092,1033,451.4092,1021,439.4092,1033,427.4092" style="stroke:#181818;stroke-width:0.5;"/><polygon fill="#F1F1F1" points="1164.5,461.4092,1176.5,473.4092,1164.5,485.4092,1152.5,473.4092,1164.5,461.4092" style="stroke:#181818;stroke-width:0.5;"/><polygon fill="#F1F1F1" points="1100.5,559.3779,1228.5,559.3779,1240.5,571.3779,1228.5,583.3779,1100.5,583.3779,1088.5,571.3779,1100.5,559.3779" style="stroke:#181818;stroke-width:0.5;"/><text fill="#000000" font-family="sans-serif" font-size="11" lengthAdjust="spacing" textLength="128" x="1100.5" y="575.186">дальнешие действия</text><polygon fill="#F1F1F1" points="1009.5,603.3779,1183.5,603.3779,1195.5,615.3779,1183.5,627.3779,1009.5,627.3779,997.5,615.3779,1009.5,603.3779" style="stroke:#181818;stroke-width:0.5;"/><text fill="#000000" font-family="sans-serif" font-size="11" lengthAdjust="spacing" textLength="174" x="1009.5" y="619.186">совершить действия с узлом</text><text fill="#000000" font-family="sans-serif" font-size="11" lengthAdjust="spacing" textLength="15" x="982.5" y="612.7837">да</text><text fill="#000000" font-family="sans-serif" font-size="11" lengthAdjust="spacing" textLength="21" x="1195.5" y="612.7837">нет</text><polygon fill="#F1F1F1" points="536.5,647.3779,750.5,647.3779,762.5,659.3779,750.5,671.3779,536.5,671.3779,524.5,659.3779,536.5,647.3779" style="stroke:#181818;stroke-width:0.5;"/><text fill="#000000" font-family="sans-serif" font-size="11" lengthAdjust="spacing" textLength="214" x="536.5" y="663.186">с каким узлом совершить действие</text><text fill="#000000" font-family="sans-serif" font-size="11" lengthAdjust="spacing" textLength="167" x="357.5" y="656.7837">перейти к доступным узлам</text><text fill="#000000" font-family="sans-serif" font-size="11" lengthAdjust="spacing" textLength="166" x="762.5" y="656.7837">перейти к узлам "мой диск"</text><polygon fill="#F1F1F1" points="643.5,687.3779,655.5,699.3779,643.5,711.3779,631.5,699.3779,643.5,687.3779" style="stroke:#181818;stroke-width:0.5;"/><rect fill="#F1F1F1" height="33.9688" rx="12.5" ry="12.5" style="stroke:#181818;stroke-width:0.5;" width="173" x="557" y="802.0884"/><text fill="#000000" font-family="sans-serif" font-size="12" lengthAdjust="spacing" textLength="153" x="567" y="823.2271">перейти к директории</text><polygon fill="#F1F1F1" points="555.5,935.7676,731.5,935.7676,743.5,947.7676,731.5,959.7676,555.5,959.7676,543.5,947.7676,555.5,935.7676" style="stroke:#181818;stroke-width:0.5;"/><text fill="#000000" font-family="sans-serif" font-size="11" lengthAdjust="spacing" textLength="176" x="555.5" y="951.5757">произвести действия с узлом</text><rect fill="#F1F1F1" height="33.9688" rx="12.5" ry="12.5" style="stroke:#181818;stroke-width:0.5;" width="142" x="46" y="979.7676"/><text fill="#000000" font-family="sans-serif" font-size="12" lengthAdjust="spacing" textLength="122" x="56" y="1000.9063">Переместить узел</text><rect fill="#F1F1F1" height="33.9688" rx="12.5" ry="12.5" style="stroke:#181818;stroke-width:0.5;" width="132" x="198" y="979.7676"/><text fill="#000000" font-family="sans-serif" font-size="12" lengthAdjust="spacing" textLength="112" x="208" y="1000.9063">Копировать узел</text><rect fill="#F1F1F1" height="33.9688" rx="12.5" ry="12.5" style="stroke:#181818;stroke-width:0.5;" width="136" x="340" y="979.7676"/><text fill="#000000" font-family="sans-serif" font-size="12" lengthAdjust="spacing" textLength="116" x="350" y="1000.9063">сохранить ссылку</text><rect fill="#F1F1F1" height="33.9688" rx="12.5" ry="12.5" style="stroke:#181818;stroke-width:0.5;" width="108" x="496" y="979.7676"/><text fill="#000000" font-family="sans-serif" font-size="12" lengthAdjust="spacing" textLength="88" x="506" y="1000.9063">Создать узел</text><rect fill="#F1F1F1" height="33.9688" rx="12.5" ry="12.5" style="stroke:#181818;stroke-width:0.5;" width="146" x="624" y="979.7676"/><text fill="#000000" font-family="sans-serif" font-size="12" lengthAdjust="spacing" textLength="126" x="634" y="1000.9063">Дать доступ к узлу</text><rect fill="#F1F1F1" height="33.9688" rx="12.5" ry="12.5" style="stroke:#181818;stroke-width:0.5;" width="168" x="790" y="979.7676"/><text fill="#000000" font-family="sans-serif" font-size="12" lengthAdjust="spacing" textLength="148" x="800" y="1000.9063">Забрать доступ к узлу</text><rect fill="#F1F1F1" height="33.9688" rx="12.5" ry="12.5" style="stroke:#181818;stroke-width:0.5;" width="156" x="978" y="979.7676"/><text fill="#000000" font-family="sans-serif" font-size="12" lengthAdjust="spacing" textLength="136" x="988" y="1000.9063">Редактировать узел</text><rect fill="#F1F1F1" height="33.9688" rx="12.5" ry="12.5" style="stroke:#181818;stroke-width:0.5;" width="107" x="1154" y="979.7676"/><text fill="#000000" font-family="sans-serif" font-size="12" lengthAdjust="spacing" textLength="87" x="1164" y="1000.9063">Удалить узел</text><polygon fill="#F1F1F1" points="643.5,1077.7051,643.5,1077.7051,655.5,1089.7051,643.5,1101.7051,643.5,1101.7051,631.5,1089.7051,643.5,1077.7051" style="stroke:#181818;stroke-width:0.5;"/><polygon fill="#F1F1F1" points="542,880.0571,745,880.0571,757,892.0571,745,904.0571,542,904.0571,530,892.0571,542,880.0571" style="stroke:#181818;stroke-width:0.5;"/><text fill="#000000" font-family="sans-serif" font-size="11" lengthAdjust="spacing" textLength="15" x="647.5" y="914.2676">да</text><text fill="#000000" font-family="sans-serif" font-size="11" lengthAdjust="spacing" textLength="203" x="542" y="895.8652">необходимо произвести действия</text><text fill="#000000" font-family="sans-serif" font-size="11" lengthAdjust="spacing" textLength="21" x="509" y="889.4629">нет</text><polygon fill="#F1F1F1" points="1096.5,1133.7051,1108.5,1145.7051,1096.5,1157.7051,1084.5,1145.7051,1096.5,1133.7051" style="stroke:#181818;stroke-width:0.5;"/><rect fill="#F1F1F1" height="33.9688" rx="12.5" ry="12.5" style="stroke:#181818;stroke-width:0.5;" width="204" x="1302" y="603.3779"/><text fill="#000000" font-family="sans-serif" font-size="12" lengthAdjust="spacing" textLength="184" x="1312" y="624.5166">Изменить логин или пароль</text><rect fill="#F1F1F1" height="33.9688" rx="12.5" ry="12.5" style="stroke:#181818;stroke-width:0.5;" width="206" x="1516" y="603.3779"/><text fill="#000000" font-family="sans-serif" font-size="12" lengthAdjust="spacing" textLength="186" x="1526" y="624.5166">Изменить язык интерфейса</text><polygon fill="#F1F1F1" points="1164.5,1167.7051,1164.5,1167.7051,1176.5,1179.7051,1164.5,1191.7051,1164.5,1191.7051,1152.5,1179.7051,1164.5,1167.7051" style="stroke:#181818;stroke-width:0.5;"/><ellipse cx="1164.5" cy="1222.7051" fill="none" rx="11" ry="11" style="stroke:#222222;stroke-width:1.0;"/><ellipse cx="1164.5" cy="1222.7051" fill="#222222" rx="6" ry="6" style="stroke:#111111;stroke-width:1.0;"/><line style="stroke:#000000;stroke-width:1.5;" x1="15" x2="15" y1="12.7451" y2="1233.7051"/><rect fill="#F1F1F1" height="33.9688" rx="12.5" ry="12.5" style="stroke:#181818;stroke-width:0.5;" width="268" x="2818" y="176.667"/><text fill="#000000" font-family="sans-serif" font-size="12" lengthAdjust="spacing" textLength="244" x="2832" y="197.8057">Добавление пользователя в систему</text><rect fill="#F1F1F1" height="33.9688" rx="12.5" ry="12.5" style="stroke:#181818;stroke-width:0.5;" width="120" x="2760.5" y="505.4092"/><text fill="#000000" font-family="sans-serif" font-size="12" lengthAdjust="spacing" textLength="100" x="2770.5" y="526.5479">Вход в систему</text><polygon fill="#F1F1F1" points="2252,746.3779,2387,746.3779,2399,758.3779,2387,770.3779,2252,770.3779,2240,758.3779,2252,746.3779" style="stroke:#181818;stroke-width:0.5;"/><text fill="#000000" font-family="sans-serif" font-size="11" lengthAdjust="spacing" textLength="15" x="2323.5" y="780.5884">да</text><text fill="#000000" font-family="sans-serif" font-size="11" lengthAdjust="spacing" textLength="135" x="2252" y="762.186">перейти к директории</text><text fill="#000000" font-family="sans-serif" font-size="11" lengthAdjust="spacing" textLength="21" x="2219" y="755.7837">нет</text><rect fill="#F1F1F1" height="33.9688" rx="12.5" ry="12.5" style="stroke:#181818;stroke-width:0.5;" width="142" x="1732" y="1033.7363"/><text fill="#000000" font-family="sans-serif" font-size="12" lengthAdjust="spacing" textLength="122" x="1742" y="1054.875">Переместить узел</text><rect fill="#F1F1F1" height="33.9688" rx="12.5" ry="12.5" style="stroke:#181818;stroke-width:0.5;" width="132" x="1884" y="1033.7363"/><text fill="#000000" font-family="sans-serif" font-size="12" lengthAdjust="spacing" textLength="112" x="1894" y="1054.875">Копировать узел</text><rect fill="#F1F1F1" height="33.9688" rx="12.5" ry="12.5" style="stroke:#181818;stroke-width:0.5;" width="136" x="2026" y="1033.7363"/><text fill="#000000" font-family="sans-serif" font-size="12" lengthAdjust="spacing" textLength="116" x="2036" y="1054.875">сохранить ссылку</text><rect fill="#F1F1F1" height="33.9688" rx="12.5" ry="12.5" style="stroke:#181818;stroke-width:0.5;" width="108" x="2172" y="1033.7363"/><text fill="#000000" font-family="sans-serif" font-size="12" lengthAdjust="spacing" textLength="88" x="2182" y="1054.875">Создать узел</text><rect fill="#F1F1F1" height="33.9688" rx="12.5" ry="12.5" style="stroke:#181818;stroke-width:0.5;" width="146" x="2300" y="1033.7363"/><text fill="#000000" font-family="sans-serif" font-size="12" lengthAdjust="spacing" textLength="126" x="2310" y="1054.875">Дать доступ к узлу</text><rect fill="#F1F1F1" height="33.9688" rx="12.5" ry="12.5" style="stroke:#181818;stroke-width:0.5;" width="168" x="2456" y="1033.7363"/><text fill="#000000" font-family="sans-serif" font-size="12" lengthAdjust="spacing" textLength="148" x="2466" y="1054.875">Забрать доступ к узлу</text><rect fill="#F1F1F1" height="33.9688" rx="12.5" ry="12.5" style="stroke:#181818;stroke-width:0.5;" width="156" x="2634" y="1033.7363"/><text fill="#000000" font-family="sans-serif" font-size="12" lengthAdjust="spacing" textLength="136" x="2644" y="1054.875">Редактировать узел</text><rect fill="#F1F1F1" height="33.9688" rx="12.5" ry="12.5" style="stroke:#181818;stroke-width:0.5;" width="107" x="2810" y="1033.7363"/><text fill="#000000" font-family="sans-serif" font-size="12" lengthAdjust="spacing" textLength="87" x="2820" y="1054.875">Удалить узел</text><polygon fill="#F1F1F1" points="3195.5,647.3779,3195.5,647.3779,3207.5,659.3779,3195.5,671.3779,3195.5,671.3779,3183.5,659.3779,3195.5,647.3779" style="stroke:#181818;stroke-width:0.5;"/><rect fill="#F1F1F1" height="33.9688" rx="12.5" ry="12.5" style="stroke:#181818;stroke-width:0.5;" width="165" x="2949" y="691.3779"/><text fill="#000000" font-family="sans-serif" font-size="12" lengthAdjust="spacing" textLength="145" x="2959" y="712.5166">Сохранить изменения</text><rect fill="#F1F1F1" height="33.9688" rx="12.5" ry="12.5" style="stroke:#181818;stroke-width:0.5;" width="146" x="3124" y="691.3779"/><text fill="#000000" font-family="sans-serif" font-size="12" lengthAdjust="spacing" textLength="126" x="3134" y="712.5166">Выйти из аккаунта</text><rect fill="#F1F1F1" height="33.9688" rx="12.5" ry="12.5" style="stroke:#181818;stroke-width:0.5;" width="162" x="3280" y="691.3779"/><text fill="#000000" font-family="sans-serif" font-size="12" lengthAdjust="spacing" textLength="142" x="3290" y="712.5166">Закрыть приложение</text><polygon fill="#F1F1F1" points="3195.5,830.2524,3195.5,830.2524,3207.5,842.2524,3195.5,854.2524,3195.5,854.2524,3183.5,842.2524,3195.5,830.2524" style="stroke:#181818;stroke-width:0.5;"/><rect fill="#F1F1F1" height="33.9688" rx="12.5" ry="12.5" style="stroke:#181818;stroke-width:0.5;" width="226" x="3476.5" y="672.3467"/><text fill="#000000" font-family="sans-serif" font-size="12" lengthAdjust="spacing" textLength="206" x="3486.5" y="693.4854">Проверить валидность данных</text><rect fill="#F1F1F1" height="33.9688" rx="12.5" ry="12.5" style="stroke:#181818;stroke-width:0.5;" width="275" x="3452" y="741.3154"/><text fill="#000000" font-family="sans-serif" font-size="12" lengthAdjust="spacing" textLength="255" x="3462" y="762.4541">Изменить логин или пароль в системе</text><line style="stroke:#000000;stroke-width:1.5;" x1="1726" x2="1726" y1="12.7451" y2="1233.7051"/><line style="stroke:#000000;stroke-width:1.5;" x1="3731" x2="3731" y1="12.7451" y2="1233.7051"/><polygon fill="#181818" points="2414,804.6704,2418,794.6704,2422,804.6704,2418,800.6704" style="stroke:#181818;stroke-width:1.0;"/><line style="stroke:#181818;stroke-width:1.0;" x1="1164.5" x2="1164.5" y1="58.6982" y2="78.6982"/><polygon fill="#181818" points="1160.5,68.6982,1164.5,78.6982,1168.5,68.6982,1164.5,72.6982" style="stroke:#181818;stroke-width:1.0;"/><line style="stroke:#181818;stroke-width:1.0;" x1="1033" x2="1033" y1="303.0381" y2="341.4404"/><line style="stroke:#181818;stroke-width:1.0;" x1="1033" x2="1100" y1="341.4404" y2="341.4404"/><polygon fill="#181818" points="1096,331.4404,1100,321.4404,1104,331.4404,1100,327.4404" style="stroke:#181818;stroke-width:1.0;"/><line style="stroke:#181818;stroke-width:1.0;" x1="1100" x2="1100" y1="291.0381" y2="341.4404"/><line style="stroke:#181818;stroke-width:1.0;" x1="1100" x2="1088" y1="291.0381" y2="291.0381"/><polygon fill="#181818" points="1098,287.0381,1088,291.0381,1098,295.0381,1094,291.0381" style="stroke:#181818;stroke-width:1.0;"/><line style="stroke:#181818;stroke-width:1.0;" x1="978" x2="966" y1="291.0381" y2="291.0381"/><polygon fill="#181818" points="962,317.4404,966,327.4404,970,317.4404,966,321.4404" style="stroke:#181818;stroke-width:1.0;"/><line style="stroke:#181818;stroke-width:1.0;" x1="966" x2="966" y1="291.0381" y2="353.4404"/><line style="stroke:#181818;stroke-width:1.0;" x1="966" x2="1033" y1="353.4404" y2="353.4404"/><line style="stroke:#181818;stroke-width:1.0;" x1="1033" x2="1033" y1="353.4404" y2="373.4404"/><polygon fill="#181818" points="1029,363.4404,1033,373.4404,1037,363.4404,1033,367.4404" style="stroke:#181818;stroke-width:1.0;"/><line style="stroke:#181818;stroke-width:1.0;" x1="1033" x2="1033" y1="259.0381" y2="279.0381"/><polygon fill="#181818" points="1029,269.0381,1033,279.0381,1037,269.0381,1033,273.0381" style="stroke:#181818;stroke-width:1.0;"/><line style="stroke:#181818;stroke-width:1.0;" x1="1033" x2="1033" y1="200.667" y2="225.0693"/><polygon fill="#181818" points="1029,215.0693,1033,225.0693,1037,215.0693,1033,219.0693" style="stroke:#181818;stroke-width:1.0;"/><line style="stroke:#181818;stroke-width:1.0;" x1="1130" x2="1142" y1="188.667" y2="188.667"/><polygon fill="#181818" points="1138,311.4404,1142,321.4404,1146,311.4404,1142,315.4404" style="stroke:#181818;stroke-width:1.0;"/><line style="stroke:#181818;stroke-width:1.0;" x1="1142" x2="1142" y1="188.667" y2="439.4092"/><line style="stroke:#181818;stroke-width:1.0;" x1="1142" x2="1045" y1="439.4092" y2="439.4092"/><polygon fill="#181818" points="1055,435.4092,1045,439.4092,1055,443.4092,1051,439.4092" style="stroke:#181818;stroke-width:1.0;"/><line style="stroke:#181818;stroke-width:1.0;" x1="1033" x2="1033" y1="407.4092" y2="427.4092"/><polygon fill="#181818" points="1029,417.4092,1033,427.4092,1037,417.4092,1033,421.4092" style="stroke:#181818;stroke-width:1.0;"/><line style="stroke:#181818;stroke-width:1.0;" x1="1058" x2="1033" y1="144.667" y2="144.667"/><line style="stroke:#181818;stroke-width:1.0;" x1="1033" x2="1033" y1="144.667" y2="176.667"/><polygon fill="#181818" points="1029,166.667,1033,176.667,1037,166.667,1033,170.667" style="stroke:#181818;stroke-width:1.0;"/><line style="stroke:#181818;stroke-width:1.0;" x1="1033" x2="1033" y1="451.4092" y2="473.4092"/><line style="stroke:#181818;stroke-width:1.0;" x1="1033" x2="1152.5" y1="473.4092" y2="473.4092"/><polygon fill="#181818" points="1142.5,469.4092,1152.5,473.4092,1142.5,477.4092,1146.5,473.4092" style="stroke:#181818;stroke-width:1.0;"/><line style="stroke:#181818;stroke-width:1.0;" x1="1164.5" x2="1164.5" y1="112.667" y2="132.667"/><polygon fill="#181818" points="1160.5,122.667,1164.5,132.667,1168.5,122.667,1164.5,126.667" style="stroke:#181818;stroke-width:1.0;"/><line style="stroke:#181818;stroke-width:1.0;" x1="524.5" x2="514.5" y1="659.3779" y2="659.3779"/><polygon fill="#181818" points="510.5,669.3779,514.5,679.3779,518.5,669.3779,514.5,673.3779" style="stroke:#181818;stroke-width:1.0;"/><line style="stroke:#181818;stroke-width:1.0;" x1="514.5" x2="514.5" y1="659.3779" y2="699.3779"/><line style="stroke:#181818;stroke-width:1.0;" x1="514.5" x2="631.5" y1="699.3779" y2="699.3779"/><polygon fill="#181818" points="621.5,695.3779,631.5,699.3779,621.5,703.3779,625.5,699.3779" style="stroke:#181818;stroke-width:1.0;"/><line style="stroke:#181818;stroke-width:1.0;" x1="762.5" x2="772.5" y1="659.3779" y2="659.3779"/><polygon fill="#181818" points="768.5,669.3779,772.5,679.3779,776.5,669.3779,772.5,673.3779" style="stroke:#181818;stroke-width:1.0;"/><line style="stroke:#181818;stroke-width:1.0;" x1="772.5" x2="772.5" y1="659.3779" y2="699.3779"/><line style="stroke:#181818;stroke-width:1.0;" x1="772.5" x2="655.5" y1="699.3779" y2="699.3779"/><polygon fill="#181818" points="665.5,695.3779,655.5,699.3779,665.5,703.3779,661.5,699.3779" style="stroke:#181818;stroke-width:1.0;"/><line style="stroke:#181818;stroke-width:1.0;" x1="543.5" x2="117" y1="947.7676" y2="947.7676"/><line style="stroke:#181818;stroke-width:1.0;" x1="117" x2="117" y1="947.7676" y2="979.7676"/><polygon fill="#181818" points="113,969.7676,117,979.7676,121,969.7676,117,973.7676" style="stroke:#181818;stroke-width:1.0;"/><line style="stroke:#181818;stroke-width:1.0;" x1="743.5" x2="1207.5" y1="947.7676" y2="947.7676"/><line style="stroke:#181818;stroke-width:1.0;" x1="1207.5" x2="1207.5" y1="947.7676" y2="979.7676"/><polygon fill="#181818" points="1203.5,969.7676,1207.5,979.7676,1211.5,969.7676,1207.5,973.7676" style="stroke:#181818;stroke-width:1.0;"/><line style="stroke:#181818;stroke-width:1.0;" x1="264" x2="264" y1="947.7676" y2="979.7676"/><polygon fill="#181818" points="260,969.7676,264,979.7676,268,969.7676,264,973.7676" style="stroke:#181818;stroke-width:1.0;"/><line style="stroke:#181818;stroke-width:1.0;" x1="408" x2="408" y1="947.7676" y2="979.7676"/><polygon fill="#181818" points="404,969.7676,408,979.7676,412,969.7676,408,973.7676" style="stroke:#181818;stroke-width:1.0;"/><line style="stroke:#181818;stroke-width:1.0;" x1="643.5" x2="643.5" y1="959.7676" y2="966.4342"/><line style="stroke:#181818;stroke-width:1.0;" x1="643.5" x2="550" y1="966.4342" y2="966.4342"/><line style="stroke:#181818;stroke-width:1.0;" x1="550" x2="550" y1="966.4342" y2="979.7676"/><polygon fill="#181818" points="546,969.7676,550,979.7676,554,969.7676,550,973.7676" style="stroke:#181818;stroke-width:1.0;"/><line style="stroke:#181818;stroke-width:1.0;" x1="643.5" x2="643.5" y1="959.7676" y2="966.4342"/><line style="stroke:#181818;stroke-width:1.0;" x1="643.5" x2="697" y1="966.4342" y2="966.4342"/><line style="stroke:#181818;stroke-width:1.0;" x1="697" x2="697" y1="966.4342" y2="979.7676"/><polygon fill="#181818" points="693,969.7676,697,979.7676,701,969.7676,697,973.7676" style="stroke:#181818;stroke-width:1.0;"/><line style="stroke:#181818;stroke-width:1.0;" x1="874" x2="874" y1="947.7676" y2="979.7676"/><polygon fill="#181818" points="870,969.7676,874,979.7676,878,969.7676,874,973.7676" style="stroke:#181818;stroke-width:1.0;"/><line style="stroke:#181818;stroke-width:1.0;" x1="1056" x2="1056" y1="947.7676" y2="979.7676"/><polygon fill="#181818" points="1052,969.7676,1056,979.7676,1060,969.7676,1056,973.7676" style="stroke:#181818;stroke-width:1.0;"/><line style="stroke:#181818;stroke-width:1.0;" x1="643.5" x2="643.5" y1="904.0571" y2="935.7676"/><polygon fill="#181818" points="639.5,925.7676,643.5,935.7676,647.5,925.7676,643.5,929.7676" style="stroke:#181818;stroke-width:1.0;"/><line style="stroke:#181818;stroke-width:1.0;" x1="643.5" x2="643.5" y1="1101.7051" y2="1111.7051"/><line style="stroke:#181818;stroke-width:1.0;" x1="643.5" x2="1273" y1="1111.7051" y2="1111.7051"/><polygon fill="#181818" points="1269,1052.834,1273,1042.834,1277,1052.834,1273,1048.834" style="stroke:#181818;stroke-width:1.0;"/><line style="stroke:#181818;stroke-width:1.0;" x1="1273" x2="1273" y1="892.0571" y2="1111.7051"/><line style="stroke:#181818;stroke-width:1.0;" x1="1273" x2="757" y1="892.0571" y2="892.0571"/><polygon fill="#181818" points="767,888.0571,757,892.0571,767,896.0571,763,892.0571" style="stroke:#181818;stroke-width:1.0;"/><line style="stroke:#181818;stroke-width:1.0;" x1="530" x2="34" y1="892.0571" y2="892.0571"/><polygon fill="#181818" points="30,1049.834,34,1059.834,38,1049.834,34,1053.834" style="stroke:#181818;stroke-width:1.0;"/><line style="stroke:#181818;stroke-width:1.0;" x1="34" x2="34" y1="892.0571" y2="1145.7051"/><line style="stroke:#181818;stroke-width:1.0;" x1="34" x2="1084.5" y1="1145.7051" y2="1145.7051"/><polygon fill="#181818" points="1074.5,1141.7051,1084.5,1145.7051,1074.5,1149.7051,1078.5,1145.7051" style="stroke:#181818;stroke-width:1.0;"/><line style="stroke:#181818;stroke-width:1.0;" x1="997.5" x2="643.5" y1="615.3779" y2="615.3779"/><line style="stroke:#181818;stroke-width:1.0;" x1="643.5" x2="643.5" y1="615.3779" y2="647.3779"/><polygon fill="#181818" points="639.5,637.3779,643.5,647.3779,647.5,637.3779,643.5,641.3779" style="stroke:#181818;stroke-width:1.0;"/><line style="stroke:#181818;stroke-width:1.0;" x1="1088.5" x2="1096.5" y1="571.3779" y2="571.3779"/><line style="stroke:#181818;stroke-width:1.0;" x1="1096.5" x2="1096.5" y1="571.3779" y2="603.3779"/><polygon fill="#181818" points="1092.5,593.3779,1096.5,603.3779,1100.5,593.3779,1096.5,597.3779" style="stroke:#181818;stroke-width:1.0;"/><line style="stroke:#181818;stroke-width:1.0;" x1="1240.5" x2="1619" y1="571.3779" y2="571.3779"/><line style="stroke:#181818;stroke-width:1.0;" x1="1619" x2="1619" y1="571.3779" y2="603.3779"/><polygon fill="#181818" points="1615,593.3779,1619,603.3779,1623,593.3779,1619,597.3779" style="stroke:#181818;stroke-width:1.0;"/><line style="stroke:#181818;stroke-width:1.0;" x1="1404" x2="1404" y1="571.3779" y2="603.3779"/><polygon fill="#181818" points="1400,593.3779,1404,603.3779,1408,593.3779,1404,597.3779" style="stroke:#181818;stroke-width:1.0;"/><line style="stroke:#181818;stroke-width:1.0;" x1="1096.5" x2="1096.5" y1="1157.7051" y2="1179.7051"/><line style="stroke:#181818;stroke-width:1.0;" x1="1096.5" x2="1152.5" y1="1179.7051" y2="1179.7051"/><polygon fill="#181818" points="1142.5,1175.7051,1152.5,1179.7051,1142.5,1183.7051,1146.5,1179.7051" style="stroke:#181818;stroke-width:1.0;"/><line style="stroke:#181818;stroke-width:1.0;" x1="1619" x2="1619" y1="637.3467" y2="1179.7051"/><line style="stroke:#181818;stroke-width:1.0;" x1="1619" x2="1176.5" y1="1179.7051" y2="1179.7051"/><polygon fill="#181818" points="1186.5,1175.7051,1176.5,1179.7051,1186.5,1183.7051,1182.5,1179.7051" style="stroke:#181818;stroke-width:1.0;"/><line style="stroke:#181818;stroke-width:1.0;" x1="1164.5" x2="1164.5" y1="1191.7051" y2="1211.7051"/><polygon fill="#181818" points="1160.5,1201.7051,1164.5,1211.7051,1168.5,1201.7051,1164.5,1205.7051" style="stroke:#181818;stroke-width:1.0;"/><line style="stroke:#181818;stroke-width:1.0;" x1="2240" x2="2221" y1="758.3779" y2="758.3779"/><polygon fill="#181818" points="2217,805.4204,2221,815.4204,2225,805.4204,2221,809.4204" style="stroke:#181818;stroke-width:1.0;"/><line style="stroke:#181818;stroke-width:1.0;" x1="2221" x2="2221" y1="758.3779" y2="865.0571"/><line style="stroke:#181818;stroke-width:1.0;" x1="2221" x2="643.5" y1="865.0571" y2="865.0571"/><line style="stroke:#181818;stroke-width:1.0;" x1="643.5" x2="643.5" y1="865.0571" y2="880.0571"/><polygon fill="#181818" points="639.5,870.0571,643.5,880.0571,647.5,870.0571,643.5,874.0571" style="stroke:#181818;stroke-width:1.0;"/><line style="stroke:#181818;stroke-width:1.0;" x1="3183.5" x2="3031.5" y1="659.3779" y2="659.3779"/><line style="stroke:#181818;stroke-width:1.0;" x1="3031.5" x2="3031.5" y1="659.3779" y2="691.3779"/><polygon fill="#181818" points="3027.5,681.3779,3031.5,691.3779,3035.5,681.3779,3031.5,685.3779" style="stroke:#181818;stroke-width:1.0;"/><line style="stroke:#181818;stroke-width:1.0;" x1="3207.5" x2="3361" y1="659.3779" y2="659.3779"/><line style="stroke:#181818;stroke-width:1.0;" x1="3361" x2="3361" y1="659.3779" y2="691.3779"/><polygon fill="#181818" points="3357,681.3779,3361,691.3779,3365,681.3779,3361,685.3779" style="stroke:#181818;stroke-width:1.0;"/><line style="stroke:#181818;stroke-width:1.0;" x1="3195.5" x2="3195.5" y1="671.3779" y2="678.0446"/><line style="stroke:#181818;stroke-width:1.0;" x1="3195.5" x2="3197" y1="678.0446" y2="678.0446"/><line style="stroke:#181818;stroke-width:1.0;" x1="3197" x2="3197" y1="678.0446" y2="691.3779"/><polygon fill="#181818" points="3193,681.3779,3197,691.3779,3201,681.3779,3197,685.3779" style="stroke:#181818;stroke-width:1.0;"/><line style="stroke:#181818;stroke-width:1.0;" x1="3031.5" x2="3031.5" y1="725.3467" y2="842.2524"/><line style="stroke:#181818;stroke-width:1.0;" x1="3031.5" x2="3183.5" y1="842.2524" y2="842.2524"/><polygon fill="#181818" points="3173.5,838.2524,3183.5,842.2524,3173.5,846.2524,3177.5,842.2524" style="stroke:#181818;stroke-width:1.0;"/><line style="stroke:#181818;stroke-width:1.0;" x1="3361" x2="3361" y1="725.3467" y2="842.2524"/><line style="stroke:#181818;stroke-width:1.0;" x1="3361" x2="3207.5" y1="842.2524" y2="842.2524"/><polygon fill="#181818" points="3217.5,838.2524,3207.5,842.2524,3217.5,846.2524,3213.5,842.2524" style="stroke:#181818;stroke-width:1.0;"/><line style="stroke:#181818;stroke-width:1.0;" x1="3197" x2="3197" y1="725.3467" y2="780.3467"/><line style="stroke:#181818;stroke-width:1.0;" x1="3197" x2="3195.5" y1="780.3467" y2="780.3467"/><line style="stroke:#181818;stroke-width:1.0;" x1="3195.5" x2="3195.5" y1="780.3467" y2="830.2524"/><polygon fill="#181818" points="3191.5,820.2524,3195.5,830.2524,3199.5,820.2524,3195.5,824.2524" style="stroke:#181818;stroke-width:1.0;"/><line style="stroke:#181818;stroke-width:1.0;" x1="3589.5" x2="3589.5" y1="706.3154" y2="741.3154"/><polygon fill="#181818" points="3585.5,731.3154,3589.5,741.3154,3593.5,731.3154,3589.5,735.3154" style="stroke:#181818;stroke-width:1.0;"/><line style="stroke:#181818;stroke-width:1.0;" x1="1271" x2="2952" y1="144.667" y2="144.667"/><line style="stroke:#181818;stroke-width:1.0;" x1="2952" x2="2952" y1="144.667" y2="176.667"/><polygon fill="#181818" points="2948,166.667,2952,176.667,2956,166.667,2952,170.667" style="stroke:#181818;stroke-width:1.0;"/><line style="stroke:#181818;stroke-width:1.0;" x1="2952" x2="2952" y1="210.6357" y2="473.4092"/><line style="stroke:#181818;stroke-width:1.0;" x1="2952" x2="1176.5" y1="473.4092" y2="473.4092"/><polygon fill="#181818" points="1186.5,469.4092,1176.5,473.4092,1186.5,477.4092,1182.5,473.4092" style="stroke:#181818;stroke-width:1.0;"/><line style="stroke:#181818;stroke-width:1.0;" x1="1164.5" x2="1164.5" y1="485.4092" y2="490.4092"/><line style="stroke:#181818;stroke-width:1.0;" x1="1164.5" x2="2820.5" y1="490.4092" y2="490.4092"/><line style="stroke:#181818;stroke-width:1.0;" x1="2820.5" x2="2820.5" y1="490.4092" y2="505.4092"/><polygon fill="#181818" points="2816.5,495.4092,2820.5,505.4092,2824.5,495.4092,2820.5,499.4092" style="stroke:#181818;stroke-width:1.0;"/><line style="stroke:#181818;stroke-width:1.0;" x1="2319.5" x2="2319.5" y1="770.3779" y2="787.0884"/><line style="stroke:#181818;stroke-width:1.0;" x1="2319.5" x2="643.5" y1="787.0884" y2="787.0884"/><line style="stroke:#181818;stroke-width:1.0;" x1="643.5" x2="643.5" y1="787.0884" y2="802.0884"/><polygon fill="#181818" points="639.5,792.0884,643.5,802.0884,647.5,792.0884,643.5,796.0884" style="stroke:#181818;stroke-width:1.0;"/><line style="stroke:#181818;stroke-width:1.0;" x1="643.5" x2="643.5" y1="836.0571" y2="848.0571"/><line style="stroke:#181818;stroke-width:1.0;" x1="643.5" x2="2418" y1="848.0571" y2="848.0571"/><line style="stroke:#181818;stroke-width:1.0;" x1="2418" x2="2418" y1="758.3779" y2="848.0571"/><line style="stroke:#181818;stroke-width:1.0;" x1="2418" x2="2399" y1="758.3779" y2="758.3779"/><polygon fill="#181818" points="2409,754.3779,2399,758.3779,2409,762.3779,2405,758.3779" style="stroke:#181818;stroke-width:1.0;"/><line style="stroke:#181818;stroke-width:1.0;" x1="643.5" x2="643.5" y1="711.3779" y2="728.8779"/><line style="stroke:#181818;stroke-width:1.0;" x1="643.5" x2="2319.5" y1="728.8779" y2="728.8779"/><line style="stroke:#181818;stroke-width:1.0;" x1="2319.5" x2="2319.5" y1="728.8779" y2="746.3779"/><polygon fill="#181818" points="2315.5,736.3779,2319.5,746.3779,2323.5,736.3779,2319.5,740.3779" style="stroke:#181818;stroke-width:1.0;"/><line style="stroke:#181818;stroke-width:1.0;" x1="117" x2="117" y1="1013.7363" y2="1018.7363"/><line style="stroke:#181818;stroke-width:1.0;" x1="117" x2="1803" y1="1018.7363" y2="1018.7363"/><line style="stroke:#181818;stroke-width:1.0;" x1="1803" x2="1803" y1="1018.7363" y2="1033.7363"/><polygon fill="#181818" points="1799,1023.7363,1803,1033.7363,1807,1023.7363,1803,1027.7363" style="stroke:#181818;stroke-width:1.0;"/><line style="stroke:#181818;stroke-width:1.0;" x1="264" x2="264" y1="1013.7363" y2="1018.7363"/><line style="stroke:#181818;stroke-width:1.0;" x1="264" x2="1950" y1="1018.7363" y2="1018.7363"/><line style="stroke:#181818;stroke-width:1.0;" x1="1950" x2="1950" y1="1018.7363" y2="1033.7363"/><polygon fill="#181818" points="1946,1023.7363,1950,1033.7363,1954,1023.7363,1950,1027.7363" style="stroke:#181818;stroke-width:1.0;"/><line style="stroke:#181818;stroke-width:1.0;" x1="408" x2="408" y1="1013.7363" y2="1018.7363"/><line style="stroke:#181818;stroke-width:1.0;" x1="408" x2="2094" y1="1018.7363" y2="1018.7363"/><line style="stroke:#181818;stroke-width:1.0;" x1="2094" x2="2094" y1="1018.7363" y2="1033.7363"/><polygon fill="#181818" points="2090,1023.7363,2094,1033.7363,2098,1023.7363,2094,1027.7363" style="stroke:#181818;stroke-width:1.0;"/><line style="stroke:#181818;stroke-width:1.0;" x1="550" x2="550" y1="1013.7363" y2="1018.7363"/><line style="stroke:#181818;stroke-width:1.0;" x1="550" x2="2226" y1="1018.7363" y2="1018.7363"/><line style="stroke:#181818;stroke-width:1.0;" x1="2226" x2="2226" y1="1018.7363" y2="1033.7363"/><polygon fill="#181818" points="2222,1023.7363,2226,1033.7363,2230,1023.7363,2226,1027.7363" style="stroke:#181818;stroke-width:1.0;"/><line style="stroke:#181818;stroke-width:1.0;" x1="697" x2="697" y1="1013.7363" y2="1018.7363"/><line style="stroke:#181818;stroke-width:1.0;" x1="697" x2="2373" y1="1018.7363" y2="1018.7363"/><line style="stroke:#181818;stroke-width:1.0;" x1="2373" x2="2373" y1="1018.7363" y2="1033.7363"/><polygon fill="#181818" points="2369,1023.7363,2373,1033.7363,2377,1023.7363,2373,1027.7363" style="stroke:#181818;stroke-width:1.0;"/><line style="stroke:#181818;stroke-width:1.0;" x1="874" x2="874" y1="1013.7363" y2="1018.7363"/><line style="stroke:#181818;stroke-width:1.0;" x1="874" x2="2540" y1="1018.7363" y2="1018.7363"/><line style="stroke:#181818;stroke-width:1.0;" x1="2540" x2="2540" y1="1018.7363" y2="1033.7363"/><polygon fill="#181818" points="2536,1023.7363,2540,1033.7363,2544,1023.7363,2540,1027.7363" style="stroke:#181818;stroke-width:1.0;"/><line style="stroke:#181818;stroke-width:1.0;" x1="1056" x2="1056" y1="1013.7363" y2="1018.7363"/><line style="stroke:#181818;stroke-width:1.0;" x1="1056" x2="2712" y1="1018.7363" y2="1018.7363"/><line style="stroke:#181818;stroke-width:1.0;" x1="2712" x2="2712" y1="1018.7363" y2="1033.7363"/><polygon fill="#181818" points="2708,1023.7363,2712,1033.7363,2716,1023.7363,2712,1027.7363" style="stroke:#181818;stroke-width:1.0;"/><line style="stroke:#181818;stroke-width:1.0;" x1="1207.5" x2="1207.5" y1="1013.7363" y2="1018.7363"/><line style="stroke:#181818;stroke-width:1.0;" x1="1207.5" x2="2863.5" y1="1018.7363" y2="1018.7363"/><line style="stroke:#181818;stroke-width:1.0;" x1="2863.5" x2="2863.5" y1="1018.7363" y2="1033.7363"/><polygon fill="#181818" points="2859.5,1023.7363,2863.5,1033.7363,2867.5,1023.7363,2863.5,1027.7363" style="stroke:#181818;stroke-width:1.0;"/><line style="stroke:#181818;stroke-width:1.0;" x1="1195.5" x2="3195.5" y1="615.3779" y2="615.3779"/><line style="stroke:#181818;stroke-width:1.0;" x1="3195.5" x2="3195.5" y1="615.3779" y2="647.3779"/><polygon fill="#181818" points="3191.5,637.3779,3195.5,647.3779,3199.5,637.3779,3195.5,641.3779" style="stroke:#181818;stroke-width:1.0;"/><line style="stroke:#181818;stroke-width:1.0;" x1="3195.5" x2="3195.5" y1="854.2524" y2="1145.7051"/><line style="stroke:#181818;stroke-width:1.0;" x1="3195.5" x2="1108.5" y1="1145.7051" y2="1145.7051"/><polygon fill="#181818" points="1118.5,1141.7051,1108.5,1145.7051,1118.5,1149.7051,1114.5,1145.7051" style="stroke:#181818;stroke-width:1.0;"/><line style="stroke:#181818;stroke-width:1.0;" x1="1404" x2="1404" y1="637.3467" y2="654.8467"/><line style="stroke:#181818;stroke-width:1.0;" x1="1404" x2="3589.5" y1="654.8467" y2="654.8467"/><line style="stroke:#181818;stroke-width:1.0;" x1="3589.5" x2="3589.5" y1="654.8467" y2="672.3467"/><polygon fill="#181818" points="3585.5,662.3467,3589.5,672.3467,3593.5,662.3467,3589.5,666.3467" style="stroke:#181818;stroke-width:1.0;"/><line style="stroke:#181818;stroke-width:1.0;" x1="2820.5" x2="2820.5" y1="539.3779" y2="544.3779"/><line style="stroke:#181818;stroke-width:1.0;" x1="2820.5" x2="1164.5" y1="544.3779" y2="544.3779"/><line style="stroke:#181818;stroke-width:1.0;" x1="1164.5" x2="1164.5" y1="544.3779" y2="559.3779"/><polygon fill="#181818" points="1160.5,549.3779,1164.5,559.3779,1168.5,549.3779,1164.5,553.3779" style="stroke:#181818;stroke-width:1.0;"/><text fill="#000000" font-family="sans-serif" font-size="18" lengthAdjust="spacing" textLength="137" x="802" y="29.4531">Пользователь</text><text fill="#000000" font-family="sans-serif" font-size="18" lengthAdjust="spacing" textLength="81" x="2688" y="29.4531">Система</text><!--MD5=[f716b1dd403a6f23db8b37c1f3f7a734]
@startuml
|Пользователь|
start
:Установка расширения;
if (пользователь зарегестрирован) then (да)
	if (пользователь авторризован) then (да)
	else (нет)
		:Ввести данные;
		while (данные верны) is (нет)
		endwhile (да)
		 : повторить вход;
	endif
else (нет)
	|Система|
	: Добавление пользователя в систему;
endif
|Система|
:Вход в систему;
|Пользователь|
switch (дальнешие действия)
	case()
		|Пользователь|
		if (совершить действия с узлом) then (да)
			if (с каким узлом совершить действие) then (перейти к доступным узлам)
			else (перейти к узлам "мой диск")
			endif
			|Система|
			while (перейти к директории) is (да)
				|Пользователь|
				:перейти к директории;
			endwhile (нет)
				|Пользователь|
				while (необходимо произвести действия) is (да)
					switch (произвести действия с узлом)
						case ()
							|Пользователь|
							:Переместить узел;
							|Система|
							:Переместить узел;
						case ()
							|Пользователь|
							:Копировать узел;
							|Система|
							:Копировать узел;
						case ()
							|Пользователь|
							:сохранить ссылку;
							|Система|
							:сохранить ссылку;
						case ()
							|Пользователь|
							:Создать узел;
							|Система|
							:Создать узел;
						case ()
							|Пользователь|
							:Дать доступ к узлу;
							|Система|
							:Дать доступ к узлу;
						case ()
							|Пользователь|
							:Забрать доступ к узлу;
							|Система|
							:Забрать доступ к узлу;
						case ()
							|Пользователь|
							:Редактировать узел;
							|Система|
							:Редактировать узел;
						case ()
							|Пользователь|
							:Удалить узел;
							|Система|
							:Удалить узел;
					endswitch
				endwhile (нет)
		else (нет)
			|Система|
			switch ()
				case()
					:Сохранить изменения;
				case()
					:Выйти из аккаунта;
				case()
					:Закрыть приложение;
			endswitch		
		endif
	case () 
		|Пользователь|
		:Изменить логин или пароль;
		|Система|
		:Проверить валидность данных;
		:Изменить логин или пароль в системе;
	case ()
		|Пользователь|
		
		:Изменить язык интерфейса;
endswitch
stop
@enduml

PlantUML version 1.2022.7(Mon Aug 22 17:01:30 UTC 2022)
(GPL source distribution)
Java Runtime: OpenJDK Runtime Environment
JVM: OpenJDK 64-Bit Server VM
Default Encoding: UTF-8
Language: en
Country: null
--></g></svg>