<?xml version="1.0" encoding="UTF-8" standalone="no"?><svg xmlns="http://www.w3.org/2000/svg" xmlns:xlink="http://www.w3.org/1999/xlink" contentStyleType="text/css" height="1208px" preserveAspectRatio="none" style="width:1585px;height:1208px;background:#FFFFFF;" version="1.1" viewBox="0 0 1585 1208" width="1585px" zoomAndPan="magnify"><defs/><g><line style="stroke:#181818;stroke-width:0.5;stroke-dasharray:5.0,5.0;" x1="27" x2="27" y1="81.2969" y2="1127.6797"/><line style="stroke:#181818;stroke-width:0.5;stroke-dasharray:5.0,5.0;" x1="274" x2="274" y1="81.2969" y2="1127.6797"/><line style="stroke:#181818;stroke-width:0.5;stroke-dasharray:5.0,5.0;" x1="642" x2="642" y1="81.2969" y2="1127.6797"/><line style="stroke:#181818;stroke-width:0.5;stroke-dasharray:5.0,5.0;" x1="873.5" x2="873.5" y1="81.2969" y2="1127.6797"/><line style="stroke:#181818;stroke-width:0.5;stroke-dasharray:5.0,5.0;" x1="1096.5" x2="1096.5" y1="81.2969" y2="1127.6797"/><line style="stroke:#181818;stroke-width:0.5;stroke-dasharray:5.0,5.0;" x1="1350.5" x2="1350.5" y1="81.2969" y2="1127.6797"/><text fill="#000000" font-family="sans-serif" font-size="14" lengthAdjust="spacing" textLength="39" x="5" y="77.9951">Client</text><ellipse cx="27.5" cy="13.5" fill="#E2E2F0" rx="8" ry="8" style="stroke:#181818;stroke-width:0.5;"/><path d="M27.5,21.5 L27.5,48.5 M14.5,29.5 L40.5,29.5 M27.5,48.5 L14.5,63.5 M27.5,48.5 L40.5,63.5 " fill="none" style="stroke:#181818;stroke-width:0.5;"/><text fill="#000000" font-family="sans-serif" font-size="14" lengthAdjust="spacing" textLength="39" x="5" y="1139.6748">Client</text><ellipse cx="27.5" cy="1151.4766" fill="#E2E2F0" rx="8" ry="8" style="stroke:#181818;stroke-width:0.5;"/><path d="M27.5,1159.4766 L27.5,1186.4766 M14.5,1167.4766 L40.5,1167.4766 M27.5,1186.4766 L14.5,1201.4766 M27.5,1186.4766 L40.5,1201.4766 " fill="none" style="stroke:#181818;stroke-width:0.5;"/><rect fill="#E2E2F0" height="30.2969" rx="2.5" ry="2.5" style="stroke:#181818;stroke-width:0.5;" width="27" x="261" y="50"/><text fill="#000000" font-family="sans-serif" font-size="14" lengthAdjust="spacing" textLength="13" x="268" y="69.9951">UI</text><rect fill="#E2E2F0" height="30.2969" rx="2.5" ry="2.5" style="stroke:#181818;stroke-width:0.5;" width="27" x="261" y="1126.6797"/><text fill="#000000" font-family="sans-serif" font-size="14" lengthAdjust="spacing" textLength="13" x="268" y="1146.6748">UI</text><rect fill="#E2E2F0" height="30.2969" rx="2.5" ry="2.5" style="stroke:#181818;stroke-width:0.5;" width="89" x="598" y="50"/><text fill="#000000" font-family="sans-serif" font-size="14" lengthAdjust="spacing" textLength="75" x="605" y="69.9951">CloudDrive</text><rect fill="#E2E2F0" height="30.2969" rx="2.5" ry="2.5" style="stroke:#181818;stroke-width:0.5;" width="89" x="598" y="1126.6797"/><text fill="#000000" font-family="sans-serif" font-size="14" lengthAdjust="spacing" textLength="75" x="605" y="1146.6748">CloudDrive</text><rect fill="#E2E2F0" height="30.2969" rx="2.5" ry="2.5" style="stroke:#181818;stroke-width:0.5;" width="126" x="810.5" y="50"/><text fill="#000000" font-family="sans-serif" font-size="14" lengthAdjust="spacing" textLength="112" x="817.5" y="69.9951">CloudDriveProxy</text><rect fill="#E2E2F0" height="30.2969" rx="2.5" ry="2.5" style="stroke:#181818;stroke-width:0.5;" width="126" x="810.5" y="1126.6797"/><text fill="#000000" font-family="sans-serif" font-size="14" lengthAdjust="spacing" textLength="112" x="817.5" y="1146.6748">CloudDriveProxy</text><rect fill="#E2E2F0" height="30.2969" rx="2.5" ry="2.5" style="stroke:#181818;stroke-width:0.5;" width="92" x="1050.5" y="50"/><text fill="#000000" font-family="sans-serif" font-size="14" lengthAdjust="spacing" textLength="78" x="1057.5" y="69.9951">NotesStore</text><rect fill="#E2E2F0" height="30.2969" rx="2.5" ry="2.5" style="stroke:#181818;stroke-width:0.5;" width="92" x="1050.5" y="1126.6797"/><text fill="#000000" font-family="sans-serif" font-size="14" lengthAdjust="spacing" textLength="78" x="1057.5" y="1146.6748">NotesStore</text><rect fill="#E2E2F0" height="30.2969" rx="2.5" ry="2.5" style="stroke:#181818;stroke-width:0.5;" width="34" x="1333.5" y="50"/><text fill="#000000" font-family="sans-serif" font-size="14" lengthAdjust="spacing" textLength="20" x="1340.5" y="69.9951">Db</text><rect fill="#E2E2F0" height="30.2969" rx="2.5" ry="2.5" style="stroke:#181818;stroke-width:0.5;" width="34" x="1333.5" y="1126.6797"/><text fill="#000000" font-family="sans-serif" font-size="14" lengthAdjust="spacing" textLength="20" x="1340.5" y="1146.6748">Db</text><polygon fill="#181818" points="262.5,108.4297,272.5,112.4297,262.5,116.4297,266.5,112.4297" style="stroke:#181818;stroke-width:1.0;"/><line style="stroke:#181818;stroke-width:1.0;" x1="27.5" x2="268.5" y1="112.4297" y2="112.4297"/><text fill="#000000" font-family="sans-serif" font-size="13" font-weight="bold" lengthAdjust="spacing" textLength="9" x="34.5" y="107.3638">1</text><text fill="#000000" font-family="sans-serif" font-size="13" lengthAdjust="spacing" textLength="195" x="47.5" y="107.3638">Взаимодействие с заметкой</text><polygon fill="#181818" points="38.5,137.5625,28.5,141.5625,38.5,145.5625,34.5,141.5625" style="stroke:#181818;stroke-width:1.0;"/><line style="stroke:#181818;stroke-width:1.0;" x1="32.5" x2="273.5" y1="141.5625" y2="141.5625"/><text fill="#000000" font-family="sans-serif" font-size="13" font-weight="bold" lengthAdjust="spacing" textLength="9" x="44.5" y="136.4966">2</text><text fill="#000000" font-family="sans-serif" font-size="13" lengthAdjust="spacing" textLength="153" x="57.5" y="136.4966">Окно редактирования</text><polygon fill="#181818" points="262.5,166.6953,272.5,170.6953,262.5,174.6953,266.5,170.6953" style="stroke:#181818;stroke-width:1.0;"/><line style="stroke:#181818;stroke-width:1.0;" x1="27.5" x2="268.5" y1="170.6953" y2="170.6953"/><text fill="#000000" font-family="sans-serif" font-size="13" font-weight="bold" lengthAdjust="spacing" textLength="9" x="34.5" y="165.6294">3</text><text fill="#000000" font-family="sans-serif" font-size="13" lengthAdjust="spacing" textLength="90" x="47.5" y="165.6294">Ввод данных</text><polygon fill="#181818" points="630.5,195.8281,640.5,199.8281,630.5,203.8281,634.5,199.8281" style="stroke:#181818;stroke-width:1.0;"/><line style="stroke:#181818;stroke-width:1.0;" x1="274.5" x2="636.5" y1="199.8281" y2="199.8281"/><text fill="#000000" font-family="sans-serif" font-size="13" font-weight="bold" lengthAdjust="spacing" textLength="9" x="281.5" y="194.7622">4</text><text fill="#000000" font-family="sans-serif" font-size="13" lengthAdjust="spacing" textLength="301" x="294.5" y="194.7622">Proxy запрос на взаисодействие с заметкой</text><polygon fill="#181818" points="1084.5,224.9609,1094.5,228.9609,1084.5,232.9609,1088.5,228.9609" style="stroke:#181818;stroke-width:1.0;"/><line style="stroke:#181818;stroke-width:1.0;" x1="642.5" x2="1090.5" y1="228.9609" y2="228.9609"/><text fill="#000000" font-family="sans-serif" font-size="13" font-weight="bold" lengthAdjust="spacing" textLength="9" x="649.5" y="223.895">5</text><text fill="#000000" font-family="sans-serif" font-size="13" lengthAdjust="spacing" textLength="264" x="662.5" y="223.895">Запрос на взаисодействие с заметкой</text><polygon fill="#181818" points="1338.5,254.0938,1348.5,258.0938,1338.5,262.0938,1342.5,258.0938" style="stroke:#181818;stroke-width:1.0;"/><line style="stroke:#181818;stroke-width:1.0;" x1="1096.5" x2="1344.5" y1="258.0938" y2="258.0938"/><text fill="#000000" font-family="sans-serif" font-size="13" font-weight="bold" lengthAdjust="spacing" textLength="9" x="1103.5" y="253.0278">6</text><text fill="#000000" font-family="sans-serif" font-size="13" lengthAdjust="spacing" textLength="217" x="1116.5" y="253.0278">Добавление\обновление записи</text><line style="stroke:#181818;stroke-width:1.0;" x1="1350.5" x2="1392.5" y1="287.2266" y2="287.2266"/><line style="stroke:#181818;stroke-width:1.0;" x1="1392.5" x2="1392.5" y1="287.2266" y2="300.2266"/><line style="stroke:#181818;stroke-width:1.0;" x1="1351.5" x2="1392.5" y1="300.2266" y2="300.2266"/><polygon fill="#181818" points="1361.5,296.2266,1351.5,300.2266,1361.5,304.2266,1357.5,300.2266" style="stroke:#181818;stroke-width:1.0;"/><text fill="#000000" font-family="sans-serif" font-size="13" font-weight="bold" lengthAdjust="spacing" textLength="9" x="1357.5" y="282.1606">7</text><text fill="#000000" font-family="sans-serif" font-size="13" lengthAdjust="spacing" textLength="208" x="1370.5" y="282.1606">Запись с данными обновленна</text><polygon fill="#181818" points="1107.5,325.3594,1097.5,329.3594,1107.5,333.3594,1103.5,329.3594" style="stroke:#181818;stroke-width:1.0;"/><line style="stroke:#181818;stroke-width:1.0;" x1="1101.5" x2="1349.5" y1="329.3594" y2="329.3594"/><text fill="#000000" font-family="sans-serif" font-size="13" font-weight="bold" lengthAdjust="spacing" textLength="9" x="1113.5" y="324.2935">8</text><text fill="#000000" font-family="sans-serif" font-size="13" lengthAdjust="spacing" textLength="44" x="1126.5" y="324.2935">Ответ</text><polygon fill="#181818" points="884.5,354.4922,874.5,358.4922,884.5,362.4922,880.5,358.4922" style="stroke:#181818;stroke-width:1.0;"/><line style="stroke:#181818;stroke-width:1.0;" x1="878.5" x2="1095.5" y1="358.4922" y2="358.4922"/><text fill="#000000" font-family="sans-serif" font-size="13" font-weight="bold" lengthAdjust="spacing" textLength="9" x="890.5" y="353.4263">9</text><text fill="#000000" font-family="sans-serif" font-size="13" lengthAdjust="spacing" textLength="186" x="903.5" y="353.4263">Запрос на взаимодействие</text><polygon fill="#181818" points="1084.5,383.625,1094.5,387.625,1084.5,391.625,1088.5,387.625" style="stroke:#181818;stroke-width:1.0;"/><line style="stroke:#181818;stroke-width:1.0;" x1="873.5" x2="1090.5" y1="387.625" y2="387.625"/><text fill="#000000" font-family="sans-serif" font-size="13" font-weight="bold" lengthAdjust="spacing" textLength="18" x="880.5" y="382.5591">10</text><text fill="#000000" font-family="sans-serif" font-size="13" lengthAdjust="spacing" textLength="44" x="902.5" y="382.5591">Ответ</text><polygon fill="#181818" points="653.5,412.7578,643.5,416.7578,653.5,420.7578,649.5,416.7578" style="stroke:#181818;stroke-width:1.0;"/><line style="stroke:#181818;stroke-width:1.0;" x1="647.5" x2="1095.5" y1="416.7578" y2="416.7578"/><text fill="#000000" font-family="sans-serif" font-size="13" font-weight="bold" lengthAdjust="spacing" textLength="18" x="659.5" y="411.6919">11</text><text fill="#000000" font-family="sans-serif" font-size="13" lengthAdjust="spacing" textLength="44" x="681.5" y="411.6919">Ответ</text><polygon fill="#181818" points="285.5,441.8906,275.5,445.8906,285.5,449.8906,281.5,445.8906" style="stroke:#181818;stroke-width:1.0;"/><line style="stroke:#181818;stroke-width:1.0;" x1="279.5" x2="641.5" y1="445.8906" y2="445.8906"/><text fill="#000000" font-family="sans-serif" font-size="13" font-weight="bold" lengthAdjust="spacing" textLength="18" x="291.5" y="440.8247">12</text><text fill="#000000" font-family="sans-serif" font-size="13" lengthAdjust="spacing" textLength="171" x="313.5" y="440.8247">Отоброжение изменений</text><polygon fill="#181818" points="38.5,471.0234,28.5,475.0234,38.5,479.0234,34.5,475.0234" style="stroke:#181818;stroke-width:1.0;"/><line style="stroke:#181818;stroke-width:1.0;" x1="32.5" x2="273.5" y1="475.0234" y2="475.0234"/><text fill="#000000" font-family="sans-serif" font-size="13" font-weight="bold" lengthAdjust="spacing" textLength="18" x="44.5" y="469.9575">13</text><text fill="#000000" font-family="sans-serif" font-size="13" lengthAdjust="spacing" textLength="201" x="66.5" y="469.9575">Взаимодействия приенннены</text><polygon fill="#181818" points="262.5,500.1563,272.5,504.1563,262.5,508.1563,266.5,504.1563" style="stroke:#181818;stroke-width:1.0;"/><line style="stroke:#181818;stroke-width:1.0;" x1="27.5" x2="268.5" y1="504.1563" y2="504.1563"/><text fill="#000000" font-family="sans-serif" font-size="13" font-weight="bold" lengthAdjust="spacing" textLength="18" x="34.5" y="499.0903">14</text><text fill="#000000" font-family="sans-serif" font-size="13" lengthAdjust="spacing" textLength="162" x="56.5" y="499.0903">Дать доступ к заметке</text><polygon fill="#181818" points="38.5,529.2891,28.5,533.2891,38.5,537.2891,34.5,533.2891" style="stroke:#181818;stroke-width:1.0;"/><line style="stroke:#181818;stroke-width:1.0;" x1="32.5" x2="273.5" y1="533.2891" y2="533.2891"/><text fill="#000000" font-family="sans-serif" font-size="13" font-weight="bold" lengthAdjust="spacing" textLength="18" x="44.5" y="528.2231">15</text><text fill="#000000" font-family="sans-serif" font-size="13" lengthAdjust="spacing" textLength="153" x="66.5" y="528.2231">Окно редактирования</text><polygon fill="#181818" points="262.5,558.4219,272.5,562.4219,262.5,566.4219,266.5,562.4219" style="stroke:#181818;stroke-width:1.0;"/><line style="stroke:#181818;stroke-width:1.0;" x1="27.5" x2="268.5" y1="562.4219" y2="562.4219"/><text fill="#000000" font-family="sans-serif" font-size="13" font-weight="bold" lengthAdjust="spacing" textLength="18" x="34.5" y="557.356">16</text><text fill="#000000" font-family="sans-serif" font-size="13" lengthAdjust="spacing" textLength="198" x="56.5" y="557.356">Ввод данных пользователей</text><polygon fill="#181818" points="630.5,587.5547,640.5,591.5547,630.5,595.5547,634.5,591.5547" style="stroke:#181818;stroke-width:1.0;"/><line style="stroke:#181818;stroke-width:1.0;" x1="274.5" x2="636.5" y1="591.5547" y2="591.5547"/><text fill="#000000" font-family="sans-serif" font-size="13" font-weight="bold" lengthAdjust="spacing" textLength="18" x="281.5" y="586.4888">17</text><text fill="#000000" font-family="sans-serif" font-size="13" lengthAdjust="spacing" textLength="287" x="303.5" y="586.4888">Proxy запрос о выдаче доступа к заметке</text><line style="stroke:#181818;stroke-width:1.0;" x1="642.5" x2="684.5" y1="620.6875" y2="620.6875"/><line style="stroke:#181818;stroke-width:1.0;" x1="684.5" x2="684.5" y1="620.6875" y2="633.6875"/><line style="stroke:#181818;stroke-width:1.0;" x1="643.5" x2="684.5" y1="633.6875" y2="633.6875"/><polygon fill="#181818" points="653.5,629.6875,643.5,633.6875,653.5,637.6875,649.5,633.6875" style="stroke:#181818;stroke-width:1.0;"/><text fill="#000000" font-family="sans-serif" font-size="13" font-weight="bold" lengthAdjust="spacing" textLength="18" x="649.5" y="615.6216">18</text><text fill="#000000" font-family="sans-serif" font-size="13" lengthAdjust="spacing" textLength="159" x="671.5" y="615.6216">Выдача доступа к узлу</text><polygon fill="#181818" points="1338.5,658.8203,1348.5,662.8203,1338.5,666.8203,1342.5,662.8203" style="stroke:#181818;stroke-width:1.0;"/><line style="stroke:#181818;stroke-width:1.0;" x1="642.5" x2="1344.5" y1="662.8203" y2="662.8203"/><text fill="#000000" font-family="sans-serif" font-size="13" font-weight="bold" lengthAdjust="spacing" textLength="18" x="649.5" y="657.7544">19</text><text fill="#000000" font-family="sans-serif" font-size="13" lengthAdjust="spacing" textLength="137" x="671.5" y="657.7544">Обновление данных</text><line style="stroke:#181818;stroke-width:1.0;" x1="1350.5" x2="1392.5" y1="691.9531" y2="691.9531"/><line style="stroke:#181818;stroke-width:1.0;" x1="1392.5" x2="1392.5" y1="691.9531" y2="704.9531"/><line style="stroke:#181818;stroke-width:1.0;" x1="1351.5" x2="1392.5" y1="704.9531" y2="704.9531"/><polygon fill="#181818" points="1361.5,700.9531,1351.5,704.9531,1361.5,708.9531,1357.5,704.9531" style="stroke:#181818;stroke-width:1.0;"/><text fill="#000000" font-family="sans-serif" font-size="13" font-weight="bold" lengthAdjust="spacing" textLength="18" x="1357.5" y="686.8872">20</text><text fill="#000000" font-family="sans-serif" font-size="13" lengthAdjust="spacing" textLength="131" x="1379.5" y="686.8872">Данные обновлены</text><polygon fill="#181818" points="653.5,730.0859,643.5,734.0859,653.5,738.0859,649.5,734.0859" style="stroke:#181818;stroke-width:1.0;"/><line style="stroke:#181818;stroke-width:1.0;" x1="647.5" x2="1349.5" y1="734.0859" y2="734.0859"/><text fill="#000000" font-family="sans-serif" font-size="13" font-weight="bold" lengthAdjust="spacing" textLength="18" x="659.5" y="729.02">21</text><text fill="#000000" font-family="sans-serif" font-size="13" lengthAdjust="spacing" textLength="44" x="681.5" y="729.02">Ответ</text><polygon fill="#181818" points="285.5,759.2188,275.5,763.2188,285.5,767.2188,281.5,763.2188" style="stroke:#181818;stroke-width:1.0;"/><line style="stroke:#181818;stroke-width:1.0;" x1="279.5" x2="641.5" y1="763.2188" y2="763.2188"/><text fill="#000000" font-family="sans-serif" font-size="13" font-weight="bold" lengthAdjust="spacing" textLength="18" x="291.5" y="758.1528">22</text><text fill="#000000" font-family="sans-serif" font-size="13" lengthAdjust="spacing" textLength="98" x="313.5" y="758.1528">Доступ выдан</text><polygon fill="#181818" points="38.5,788.3516,28.5,792.3516,38.5,796.3516,34.5,792.3516" style="stroke:#181818;stroke-width:1.0;"/><line style="stroke:#181818;stroke-width:1.0;" x1="32.5" x2="273.5" y1="792.3516" y2="792.3516"/><text fill="#000000" font-family="sans-serif" font-size="13" font-weight="bold" lengthAdjust="spacing" textLength="18" x="44.5" y="787.2856">23</text><text fill="#000000" font-family="sans-serif" font-size="13" lengthAdjust="spacing" textLength="156" x="66.5" y="787.2856">Ответ "Доступ выдан"</text><polygon fill="#181818" points="262.5,817.4844,272.5,821.4844,262.5,825.4844,266.5,821.4844" style="stroke:#181818;stroke-width:1.0;"/><line style="stroke:#181818;stroke-width:1.0;" x1="27.5" x2="268.5" y1="821.4844" y2="821.4844"/><text fill="#000000" font-family="sans-serif" font-size="13" font-weight="bold" lengthAdjust="spacing" textLength="18" x="34.5" y="816.4185">24</text><text fill="#000000" font-family="sans-serif" font-size="13" lengthAdjust="spacing" textLength="184" x="56.5" y="816.4185">Забрать доступ к заметке</text><polygon fill="#181818" points="38.5,846.6172,28.5,850.6172,38.5,854.6172,34.5,850.6172" style="stroke:#181818;stroke-width:1.0;"/><line style="stroke:#181818;stroke-width:1.0;" x1="32.5" x2="273.5" y1="850.6172" y2="850.6172"/><text fill="#000000" font-family="sans-serif" font-size="13" font-weight="bold" lengthAdjust="spacing" textLength="18" x="44.5" y="845.5513">25</text><text fill="#000000" font-family="sans-serif" font-size="13" lengthAdjust="spacing" textLength="153" x="66.5" y="845.5513">Окно редактирования</text><polygon fill="#181818" points="262.5,875.75,272.5,879.75,262.5,883.75,266.5,879.75" style="stroke:#181818;stroke-width:1.0;"/><line style="stroke:#181818;stroke-width:1.0;" x1="27.5" x2="268.5" y1="879.75" y2="879.75"/><text fill="#000000" font-family="sans-serif" font-size="13" font-weight="bold" lengthAdjust="spacing" textLength="18" x="34.5" y="874.6841">26</text><text fill="#000000" font-family="sans-serif" font-size="13" lengthAdjust="spacing" textLength="198" x="56.5" y="874.6841">Ввод данных пользователей</text><polygon fill="#181818" points="630.5,904.8828,640.5,908.8828,630.5,912.8828,634.5,908.8828" style="stroke:#181818;stroke-width:1.0;"/><line style="stroke:#181818;stroke-width:1.0;" x1="274.5" x2="636.5" y1="908.8828" y2="908.8828"/><text fill="#000000" font-family="sans-serif" font-size="13" font-weight="bold" lengthAdjust="spacing" textLength="18" x="281.5" y="903.8169">27</text><text fill="#000000" font-family="sans-serif" font-size="13" lengthAdjust="spacing" textLength="322" x="303.5" y="903.8169">Proxy запрос о ограничении доступа к заметке</text><line style="stroke:#181818;stroke-width:1.0;" x1="642.5" x2="684.5" y1="938.0156" y2="938.0156"/><line style="stroke:#181818;stroke-width:1.0;" x1="684.5" x2="684.5" y1="938.0156" y2="951.0156"/><line style="stroke:#181818;stroke-width:1.0;" x1="643.5" x2="684.5" y1="951.0156" y2="951.0156"/><polygon fill="#181818" points="653.5,947.0156,643.5,951.0156,653.5,955.0156,649.5,951.0156" style="stroke:#181818;stroke-width:1.0;"/><text fill="#000000" font-family="sans-serif" font-size="13" font-weight="bold" lengthAdjust="spacing" textLength="18" x="649.5" y="932.9497">28</text><text fill="#000000" font-family="sans-serif" font-size="13" lengthAdjust="spacing" textLength="195" x="671.5" y="932.9497">Ограничение доступа к узлу</text><polygon fill="#181818" points="1338.5,976.1484,1348.5,980.1484,1338.5,984.1484,1342.5,980.1484" style="stroke:#181818;stroke-width:1.0;"/><line style="stroke:#181818;stroke-width:1.0;" x1="642.5" x2="1344.5" y1="980.1484" y2="980.1484"/><text fill="#000000" font-family="sans-serif" font-size="13" font-weight="bold" lengthAdjust="spacing" textLength="18" x="649.5" y="975.0825">29</text><text fill="#000000" font-family="sans-serif" font-size="13" lengthAdjust="spacing" textLength="137" x="671.5" y="975.0825">Обновление данных</text><line style="stroke:#181818;stroke-width:1.0;" x1="1350.5" x2="1392.5" y1="1009.2813" y2="1009.2813"/><line style="stroke:#181818;stroke-width:1.0;" x1="1392.5" x2="1392.5" y1="1009.2813" y2="1022.2813"/><line style="stroke:#181818;stroke-width:1.0;" x1="1351.5" x2="1392.5" y1="1022.2813" y2="1022.2813"/><polygon fill="#181818" points="1361.5,1018.2813,1351.5,1022.2813,1361.5,1026.2813,1357.5,1022.2813" style="stroke:#181818;stroke-width:1.0;"/><text fill="#000000" font-family="sans-serif" font-size="13" font-weight="bold" lengthAdjust="spacing" textLength="18" x="1357.5" y="1004.2153">30</text><text fill="#000000" font-family="sans-serif" font-size="13" lengthAdjust="spacing" textLength="131" x="1379.5" y="1004.2153">Данные обновлены</text><polygon fill="#181818" points="653.5,1047.4141,643.5,1051.4141,653.5,1055.4141,649.5,1051.4141" style="stroke:#181818;stroke-width:1.0;"/><line style="stroke:#181818;stroke-width:1.0;" x1="647.5" x2="1349.5" y1="1051.4141" y2="1051.4141"/><text fill="#000000" font-family="sans-serif" font-size="13" font-weight="bold" lengthAdjust="spacing" textLength="18" x="659.5" y="1046.3481">31</text><text fill="#000000" font-family="sans-serif" font-size="13" lengthAdjust="spacing" textLength="44" x="681.5" y="1046.3481">Ответ</text><polygon fill="#181818" points="285.5,1076.5469,275.5,1080.5469,285.5,1084.5469,281.5,1080.5469" style="stroke:#181818;stroke-width:1.0;"/><line style="stroke:#181818;stroke-width:1.0;" x1="279.5" x2="641.5" y1="1080.5469" y2="1080.5469"/><text fill="#000000" font-family="sans-serif" font-size="13" font-weight="bold" lengthAdjust="spacing" textLength="18" x="291.5" y="1075.481">32</text><text fill="#000000" font-family="sans-serif" font-size="13" lengthAdjust="spacing" textLength="125" x="313.5" y="1075.481">Доступ ограничен</text><polygon fill="#181818" points="38.5,1105.6797,28.5,1109.6797,38.5,1113.6797,34.5,1109.6797" style="stroke:#181818;stroke-width:1.0;"/><line style="stroke:#181818;stroke-width:1.0;" x1="32.5" x2="273.5" y1="1109.6797" y2="1109.6797"/><text fill="#000000" font-family="sans-serif" font-size="13" font-weight="bold" lengthAdjust="spacing" textLength="18" x="44.5" y="1104.6138">33</text><text fill="#000000" font-family="sans-serif" font-size="13" lengthAdjust="spacing" textLength="183" x="66.5" y="1104.6138">Ответ "Доступ ограничен"</text><!--MD5=[126fbdfcdbb27a56a155fecd4030d213]
@startuml
autonumber

    actor Client
    
    participant UI
    participant CloudDrive
    participant CloudDriveProxy
    participant NotesStore
    participant Db

    ' Создание заметки
    Client -> UI: Взаимодействие с заметкой
    UI -> Client: Окно редактирования
    Client -> UI: Ввод данных
    UI -> CloudDrive: Proxy запрос на взаисодействие с заметкой
    CloudDrive -> NotesStore: Запрос на взаисодействие с заметкой
    NotesStore -> Db: Добавление\обновление записи
    Db -> Db: Запись с данными обновленна 
    Db -> NotesStore: Ответ
    NotesStore -> CloudDriveProxy: Запрос на взаимодействие
    CloudDriveProxy -> NotesStore: Ответ
    NotesStore -> CloudDrive: Ответ
    CloudDrive -> UI: Отоброжение изменений
    UI -> Client: Взаимодействия приенннены

     ' Пользователь хочет дать доступ к заметке
    Client -> UI: Дать доступ к заметке
    UI -> Client: Окно редактирования
    Client -> UI: Ввод данных пользователей
    UI -> CloudDrive: Proxy запрос о выдаче доступа к заметке
    CloudDrive -> CloudDrive: Выдача доступа к узлу
    CloudDrive -> Db: Обновление данных
    Db -> Db: Данные обновлены
    Db -> CloudDrive: Ответ
    CloudDrive -> UI: Доступ выдан
    UI -> Client: Ответ "Доступ выдан"

     ' Пользователь хочет забрать доступ к заметке
    Client -> UI: Забрать доступ к заметке
    UI -> Client: Окно редактирования
    Client -> UI: Ввод данных пользователей
    UI -> CloudDrive: Proxy запрос о ограничении доступа к заметке
    CloudDrive -> CloudDrive: Ограничение доступа к узлу
    CloudDrive -> Db: Обновление данных
    Db -> Db: Данные обновлены
    Db -> CloudDrive: Ответ
    CloudDrive -> UI: Доступ ограничен
    UI -> Client: Ответ "Доступ ограничен"
@enduml

@startuml
autonumber

    actor Client
    
    participant UI
    participant CloudDrive
    participant CloudDriveProxy
    participant NotesStore
    participant Db

    Client -> UI: Взаимодействие с заметкой
    UI -> Client: Окно редактирования
    Client -> UI: Ввод данных
    UI -> CloudDrive: Proxy запрос на взаисодействие с заметкой
    CloudDrive -> NotesStore: Запрос на взаисодействие с заметкой
    NotesStore -> Db: Добавление\обновление записи
    Db -> Db: Запись с данными обновленна 
    Db -> NotesStore: Ответ
    NotesStore -> CloudDriveProxy: Запрос на взаимодействие
    CloudDriveProxy -> NotesStore: Ответ
    NotesStore -> CloudDrive: Ответ
    CloudDrive -> UI: Отоброжение изменений
    UI -> Client: Взаимодействия приенннены

    Client -> UI: Дать доступ к заметке
    UI -> Client: Окно редактирования
    Client -> UI: Ввод данных пользователей
    UI -> CloudDrive: Proxy запрос о выдаче доступа к заметке
    CloudDrive -> CloudDrive: Выдача доступа к узлу
    CloudDrive -> Db: Обновление данных
    Db -> Db: Данные обновлены
    Db -> CloudDrive: Ответ
    CloudDrive -> UI: Доступ выдан
    UI -> Client: Ответ "Доступ выдан"

    Client -> UI: Забрать доступ к заметке
    UI -> Client: Окно редактирования
    Client -> UI: Ввод данных пользователей
    UI -> CloudDrive: Proxy запрос о ограничении доступа к заметке
    CloudDrive -> CloudDrive: Ограничение доступа к узлу
    CloudDrive -> Db: Обновление данных
    Db -> Db: Данные обновлены
    Db -> CloudDrive: Ответ
    CloudDrive -> UI: Доступ ограничен
    UI -> Client: Ответ "Доступ ограничен"
@enduml

PlantUML version 1.2022.7(Mon Aug 22 17:01:30 UTC 2022)
(GPL source distribution)
Java Runtime: OpenJDK Runtime Environment
JVM: OpenJDK 64-Bit Server VM
Default Encoding: UTF-8
Language: en
Country: null
--></g></svg>